<?xml version="1.0" standalone="no"?>
<!DOCTYPE svg PUBLIC "-//W3C//DTD SVG 20010904//EN"
 "http://www.w3.org/TR/2001/REC-SVG-20010904/DTD/svg10.dtd">
<svg version="1.0" xmlns="http://www.w3.org/2000/svg"
 width="2048.000000pt" height="2048.000000pt" viewBox="0 0 2048.000000 2048.000000"
 preserveAspectRatio="xMidYMid meet">

<g transform="translate(0.000000,2048.000000) scale(0.100000,-0.100000)"
fill="#000000" stroke="none">
<path d="M9770 20430 c-2378 -121 -4550 -1011 -6332 -2597 -188 -167 -630
-609 -798 -798 -1302 -1466 -2147 -3225 -2461 -5120 -96 -582 -133 -1049 -133
-1675 0 -521 19 -835 79 -1305 246 -1918 1038 -3729 2283 -5220 214 -255 356
-410 627 -680 520 -521 988 -904 1585 -1300 1441 -955 3061 -1517 4785 -1659
736 -61 1533 -38 2260 65 1845 262 3565 1015 5010 2193 467 381 961 865 1351
1326 1270 1500 2080 3335 2329 5275 60 467 79 784 79 1300 0 509 -18 818 -75
1275 -239 1927 -1035 3756 -2287 5255 -213 255 -356 410 -627 681 -282 283
-471 454 -750 683 -1547 1268 -3406 2046 -5395 2255 -421 45 -1130 66 -1530
46z m1155 -109 c1374 -106 2584 -433 3780 -1022 779 -383 1515 -877 2200
-1474 219 -191 728 -701 920 -920 1335 -1530 2165 -3351 2429 -5335 64 -479
81 -759 81 -1330 0 -571 -17 -851 -81 -1330 -268 -2011 -1119 -3861 -2483
-5395 -154 -173 -521 -545 -701 -710 -990 -908 -2139 -1608 -3380 -2060 -882
-321 -1777 -510 -2765 -585 -231 -18 -905 -24 -1160 -11 -1304 67 -2509 356
-3675 882 -1546 696 -2923 1807 -3957 3190 -531 711 -1002 1564 -1323 2399
-647 1680 -831 3519 -530 5307 132 785 355 1540 676 2293 96 225 327 694 456
925 643 1150 1502 2164 2533 2989 912 730 1959 1303 3060 1676 880 297 1755
465 2710 520 194 11 1028 4 1210 -9z"/>
<path d="M9800 20169 c-2148 -95 -4187 -878 -5860 -2248 -457 -374 -1007 -924
-1381 -1381 -1195 -1459 -1946 -3200 -2178 -5050 -309 -2457 295 -4907 1708
-6930 470 -674 1053 -1318 1676 -1854 945 -813 2027 -1439 3205 -1852 1418
-499 2975 -664 4490 -478 2547 313 4886 1615 6509 3624 1223 1513 1970 3328
2160 5250 38 382 45 540 45 990 0 449 -7 602 -45 990 -187 1915 -937 3737
-2162 5253 -393 487 -947 1045 -1427 1438 -797 653 -1684 1177 -2640 1559
-1280 512 -2706 751 -4100 689z m1160 -253 c1035 -84 1950 -296 2885 -671
1652 -661 3100 -1777 4182 -3225 634 -850 1150 -1857 1462 -2852 240 -768 365
-1422 432 -2263 17 -220 23 -867 10 -1125 -63 -1230 -323 -2330 -821 -3470
-88 -200 -326 -670 -444 -875 -770 -1336 -1823 -2457 -3101 -3300 -739 -487
-1576 -887 -2397 -1144 -769 -241 -1421 -365 -2263 -432 -215 -17 -876 -23
-1125 -10 -514 26 -953 80 -1435 176 -3392 672 -6198 3144 -7303 6430 -231
687 -382 1391 -456 2125 -35 341 -41 484 -41 960 0 476 6 619 41 960 159 1579
689 3068 1560 4381 843 1273 1957 2318 3289 3085 205 118 675 356 875 444
1116 488 2206 749 3425 820 228 13 996 4 1225 -14z"/>
<path d="M9937 19655 c-92 -7 -170 -15 -173 -18 -3 -3 8 -215 26 -471 35 -503
34 -540 -11 -633 -39 -80 -135 -119 -252 -101 -68 10 -113 48 -148 122 -37 79
-42 122 -76 619 -15 230 -30 422 -33 426 -5 9 -356 -11 -366 -21 -6 -7 52
-883 66 -993 20 -151 82 -284 166 -353 110 -91 242 -126 449 -119 294 11 465
97 555 280 67 139 69 171 31 732 -35 530 -37 546 -54 544 -7 -1 -88 -7 -180
-14z m107 -117 c12 -58 58 -853 53 -928 -3 -51 -13 -107 -26 -141 -24 -64 -85
-139 -142 -175 -61 -38 -176 -72 -289 -84 -206 -23 -375 22 -466 123 -47 51
-90 147 -104 228 -13 82 -72 921 -64 928 3 3 45 6 92 6 l87 0 27 -390 c14
-214 31 -418 37 -453 26 -144 82 -237 172 -287 50 -28 62 -30 154 -30 123 0
184 23 248 95 58 64 78 124 84 245 4 85 -24 610 -43 812 -7 71 -10 69 108 72
63 1 68 -1 72 -21z"/>
<path d="M10850 19638 c0 -2 -43 -334 -94 -738 -52 -404 -94 -736 -93 -737 9
-9 349 -45 356 -37 4 5 32 201 61 437 30 235 56 427 59 427 3 0 80 -206 170
-458 90 -251 168 -461 173 -467 7 -7 406 -66 414 -61 2 1 180 1399 187 1461 2
18 -9 22 -113 36 -63 9 -144 20 -180 24 l-66 7 -53 -424 c-29 -233 -55 -431
-59 -440 -5 -11 -66 147 -171 441 -90 252 -167 464 -171 470 -8 14 -420 71
-420 59z m242 -122 c54 -7 101 -15 104 -19 4 -3 94 -250 200 -548 107 -298
196 -544 198 -546 2 -3 22 -7 43 -10 l39 -5 64 507 c36 278 68 511 71 517 6
10 137 1 157 -11 6 -4 -18 -228 -72 -646 -66 -520 -84 -640 -96 -640 -8 0 -68
6 -132 14 l-117 14 -77 216 c-43 119 -132 367 -198 551 l-121 334 -38 9 c-21
5 -40 7 -42 5 -3 -2 -34 -235 -70 -518 -36 -283 -66 -514 -68 -515 -3 -3 -161
17 -165 20 -2 1 33 286 78 632 44 346 80 634 80 641 0 15 39 15 162 -2z"/>
<path d="M12597 18593 c-114 -390 -208 -712 -207 -718 0 -8 351 -119 356 -112
5 7 414 1415 414 1424 0 6 -8 14 -17 17 -10 3 -88 25 -174 50 -86 25 -158 46
-161 46 -2 0 -97 -318 -211 -707z m366 562 c38 -10 71 -24 74 -31 3 -9 -288
-1024 -348 -1211 l-10 -32 -47 15 c-26 8 -64 19 -84 24 -21 6 -38 17 -38 24 0
10 337 1173 355 1225 3 7 11 11 18 9 6 -3 43 -13 80 -23z"/>
<path d="M6658 18966 c-86 -33 -160 -64 -164 -68 -9 -10 518 -1388 532 -1388
6 0 170 61 365 136 195 74 384 147 421 161 l67 25 -20 51 c-12 29 -37 94 -56
145 -20 50 -41 92 -48 92 -7 0 -118 -40 -246 -90 -128 -49 -238 -90 -244 -90
-5 0 -93 217 -195 483 -101 265 -195 510 -208 545 -13 34 -29 62 -35 61 -7 -1
-83 -29 -169 -63z m333 -604 c111 -292 206 -537 209 -542 4 -6 106 28 255 85
136 53 251 92 255 88 10 -11 44 -103 39 -106 -10 -8 -672 -258 -675 -255 -6 6
-465 1210 -462 1212 21 14 165 62 169 58 4 -4 98 -247 210 -540z"/>
<path d="M13740 19016 c0 -2 -38 -341 -85 -752 -47 -412 -86 -763 -88 -781
l-2 -32 186 -89 186 -89 544 563 c299 309 542 566 539 571 -10 16 -333 164
-340 156 -48 -55 -703 -743 -705 -741 -2 2 26 224 61 493 35 270 64 500 64
513 0 19 -24 34 -176 107 -178 86 -184 88 -184 81z m181 -187 l81 -40 -6 -37
c-4 -20 -35 -264 -71 -542 -35 -278 -67 -517 -69 -532 -4 -22 1 -30 28 -46
l34 -20 358 379 c198 209 376 398 396 422 l38 42 79 -40 79 -40 -474 -490
c-261 -269 -478 -490 -483 -490 -5 0 -61 25 -124 55 -92 43 -116 59 -116 76
-1 11 33 316 74 678 41 362 75 660 75 662 0 10 27 1 101 -37z"/>
<path d="M5270 18256 c-85 -51 -155 -97 -155 -102 0 -16 749 -1273 759 -1274
5 0 184 104 398 231 l388 232 -21 36 c-109 189 -135 231 -142 231 -4 0 -108
-59 -230 -131 -122 -73 -225 -134 -228 -135 -4 -2 -139 218 -299 489 -161 270
-298 497 -304 504 -8 8 -50 -12 -166 -81z m448 -578 c152 -257 280 -468 283
-468 4 0 105 59 225 131 121 72 224 133 230 136 11 4 64 -75 64 -95 0 -15
-611 -375 -620 -366 -13 14 -661 1107 -658 1109 2 2 37 23 78 48 l75 46 23
-37 c12 -20 147 -247 300 -504z"/>
<path d="M15070 17493 c-239 -328 -435 -600 -435 -604 0 -7 719 -538 735 -542
6 -2 157 196 183 240 5 7 -72 69 -208 168 -118 86 -217 160 -219 163 -5 8 158
233 169 234 4 0 94 -63 201 -141 107 -78 198 -140 203 -137 12 8 184 247 180
250 -2 2 -92 67 -199 146 -107 78 -194 146 -193 151 4 14 135 189 142 189 3 0
102 -70 219 -156 155 -114 216 -153 225 -146 18 15 180 242 176 246 -30 24
-725 529 -733 532 -6 2 -207 -264 -446 -593z m1038 37 c6 -16 -60 -100 -72
-93 -6 4 -105 76 -220 160 -116 84 -213 150 -217 146 -41 -48 -249 -345 -245
-352 3 -4 91 -70 196 -146 104 -76 190 -142 190 -146 0 -5 -14 -29 -32 -53
l-31 -45 -31 22 c-17 12 -107 77 -199 144 -92 68 -171 123 -175 122 -10 0
-277 -372 -277 -386 0 -7 90 -78 200 -158 110 -81 206 -152 214 -160 11 -11 8
-20 -19 -59 -19 -25 -35 -46 -38 -46 -10 0 -582 423 -582 430 0 8 116 168 602
832 l158 217 288 -210 c158 -116 288 -214 290 -219z"/>
<path d="M9990 17899 c-1604 -46 -3169 -611 -4451 -1610 -1080 -840 -1911
-1946 -2421 -3218 -280 -699 -447 -1416 -520 -2231 -18 -196 -18 -1004 0
-1200 84 -933 291 -1738 657 -2555 573 -1276 1552 -2430 2727 -3214 1106 -737
2317 -1159 3658 -1273 209 -18 991 -18 1200 0 732 62 1427 217 2085 464 1928
724 3495 2206 4330 4093 295 667 497 1399 589 2135 44 349 51 482 51 950 0
468 -7 601 -51 950 -177 1415 -738 2736 -1635 3852 -396 493 -879 958 -1395
1344 -756 565 -1629 993 -2538 1244 -577 159 -1201 253 -1751 266 -121 2 -236
6 -255 7 -19 1 -145 -1 -280 -4z m580 -99 c2202 -103 4209 -1127 5587 -2850
1217 -1523 1799 -3468 1618 -5410 -240 -2564 -1764 -4822 -4067 -6024 -900
-469 -1897 -748 -2963 -827 -207 -16 -805 -16 -1010 -1 -1694 128 -3186 746
-4465 1851 -176 152 -555 529 -709 706 -1115 1277 -1745 2786 -1873 4490 -15
206 -15 804 0 1010 138 1837 870 3471 2137 4774 1504 1546 3605 2381 5745
2281z"/>
<path d="M9820 17610 c-1464 -89 -2828 -588 -3995 -1460 -1046 -782 -1874
-1838 -2381 -3032 -492 -1163 -677 -2430 -539 -3693 237 -2154 1425 -4106
3238 -5319 1072 -717 2249 -1122 3572 -1228 208 -17 842 -17 1050 0 1023 82
1923 332 2800 777 923 469 1727 1113 2380 1910 1290 1572 1871 3592 1614 5615
-239 1892 -1221 3632 -2727 4833 -721 575 -1562 1019 -2440 1286 -510 156
-989 248 -1542 297 -208 18 -821 26 -1030 14z m1065 -254 c925 -90 1765 -332
2575 -741 976 -494 1843 -1223 2505 -2109 753 -1009 1219 -2177 1369 -3436 34
-287 41 -422 41 -830 0 -563 -32 -901 -131 -1400 -422 -2113 -1792 -3934
-3715 -4938 -943 -493 -2012 -772 -3059 -798 l-225 -6 136 64 c487 231 1011
528 1490 844 1289 851 2237 1833 2749 2844 248 491 393 964 457 1495 17 142
18 333 18 3630 l0 3480 -4860 0 -4860 0 -3 -3270 c-3 -3309 -1 -3547 33 -3813
93 -719 361 -1406 810 -2071 697 -1035 1819 -2005 3250 -2809 168 -94 501
-266 670 -346 l100 -47 -225 5 c-1164 27 -2362 373 -3390 981 -1901 1123
-3187 3068 -3464 5240 -67 517 -74 1128 -20 1660 208 2065 1345 3965 3084
5157 1016 696 2229 1125 3445 1218 77 6 158 12 180 14 115 11 882 -3 1040 -18z
m3975 -5443 c0 -2161 -4 -3350 -10 -3428 -28 -330 -81 -587 -185 -902 -364
-1103 -1263 -2187 -2616 -3154 -522 -373 -1206 -783 -1693 -1014 l-115 -55
-143 68 c-398 190 -898 479 -1341 773 -1762 1175 -2838 2568 -3086 3999 -60
341 -55 72 -59 3703 l-2 3317 4625 0 4625 0 0 -3307z"/>
<path d="M5773 11803 l3 -3228 21 -145 c71 -482 194 -880 408 -1315 590 -1199
1802 -2349 3436 -3258 124 -69 554 -287 589 -299 21 -7 439 205 713 361 1190
681 2178 1509 2818 2361 208 278 358 519 508 820 210 423 325 791 394 1260
l21 145 3 3263 3 3262 -4460 0 -4460 0 3 -3227z m8817 1292 l0 -1835 -4362 2
-4363 3 -3 1833 -2 1832 4365 0 4365 0 0 -1835z m-4430 -2469 l0 -395 -43 19
c-58 26 -191 48 -334 56 -91 5 -177 0 -373 -20 -492 -49 -731 -66 -940 -66
-114 0 -289 -3 -388 -7 l-182 -6 0 -69 0 -68 -180 0 -180 0 -2 -182 -3 -183
-227 -3 -228 -2 0 -305 0 -305 228 -2 227 -3 0 -355 0 -355 -227 -3 -228 -2 0
-305 0 -305 228 -2 227 -3 0 -355 0 -355 -227 -3 -228 -2 0 -305 0 -305 228
-2 227 -3 3 -187 2 -188 1185 0 c1156 0 1184 0 1190 -19 16 -50 167 -151 225
-151 20 0 20 -12 20 -1090 0 -599 -2 -1090 -5 -1090 -20 0 -424 214 -655 348
-992 572 -1844 1258 -2455 1977 -617 726 -997 1492 -1130 2280 -48 286 -48
294 -52 1538 l-5 1177 2151 0 2151 0 0 -394z m4430 -811 c0 -1009 -2 -1230
-15 -1353 -100 -967 -588 -1895 -1464 -2786 -696 -707 -1559 -1334 -2569
-1867 -114 -60 -210 -109 -215 -109 -4 0 -6 489 -5 1086 l3 1087 45 13 c68 20
151 74 185 121 l30 42 1185 3 1185 3 3 188 2 187 225 0 225 0 0 305 0 305
-225 0 -225 0 0 360 0 360 225 0 225 0 0 305 0 305 -225 0 -225 0 0 360 0 360
225 0 225 0 0 305 0 305 -225 0 -225 0 -2 183 -3 182 -177 3 -178 2 0 69 0 68
-187 6 c-104 4 -278 7 -388 7 -198 0 -615 30 -935 67 -280 32 -567 19 -696
-33 -33 -13 -64 -24 -67 -24 -4 0 -7 178 -7 395 l0 395 2135 0 2135 0 0 -1205z
m-4675 321 c104 -13 183 -41 222 -78 l23 -21 0 -1795 0 -1794 -41 37 c-53 47
-127 81 -204 93 -61 10 -350 -3 -1075 -48 -179 -11 -427 -20 -552 -20 l-228 0
0 1775 0 1775 286 0 c290 0 614 21 1064 69 213 23 372 25 505 7z m1152 -6
c509 -52 783 -70 1080 -70 l293 0 -2 -1772 -3 -1773 -220 -3 c-142 -2 -337 4
-550 18 -714 44 -1028 58 -1090 49 -75 -12 -135 -39 -202 -90 l-53 -40 0 1784
c0 1776 0 1784 20 1810 38 48 133 82 285 100 83 10 271 5 442 -13z m-3167
-1993 l0 -1774 293 -6 c243 -5 357 -2 682 18 215 13 526 31 692 40 388 21 378
24 507 -110 73 -75 98 -95 129 -100 74 -14 102 0 206 100 140 134 129 131 514
111 166 -9 480 -28 697 -41 329 -20 444 -23 688 -18 l292 6 0 1774 0 1773 100
0 100 0 0 -1850 0 -1850 -1161 -2 -1161 -3 -13 -39 c-31 -88 -96 -135 -199
-143 -123 -10 -225 53 -241 148 l-7 39 -1164 0 -1164 0 0 1850 0 1850 105 0
105 0 0 -1773z m-370 1263 l0 -150 -150 0 -150 0 0 143 c0 79 3 147 7 150 3 4
71 7 150 7 l143 0 0 -150z m5728 -2 l3 -148 -151 0 -150 0 0 150 0 151 148 -3
147 -3 3 -147z m-5728 -1338 l0 -151 -147 3 -148 3 -3 148 -3 147 151 0 150 0
0 -150z m5728 3 l-3 -148 -147 -3 -148 -3 0 151 0 150 150 0 151 0 -3 -147z
m-5728 -1333 l0 -150 -150 0 -150 0 0 150 0 150 150 0 150 0 0 -150z m5728 3
l-3 -148 -147 -3 -148 -3 0 151 0 150 150 0 151 0 -3 -147z"/>
<path d="M6602 13683 c5 -1074 5 -1078 27 -1145 12 -37 44 -100 71 -141 55
-82 193 -219 290 -288 90 -64 1123 -702 1136 -702 32 -1 823 462 1079 631 212
140 342 266 403 392 25 51 46 111 52 150 6 41 10 462 10 1123 l0 1057 -1536 0
-1536 0 4 -1077z m2908 577 l0 -350 -1375 0 -1375 0 0 343 c0 189 3 347 7 350
3 4 622 7 1375 7 l1368 0 0 -350z m-2490 -1231 l0 -740 -29 20 c-59 42 -152
156 -189 230 l-37 75 -3 578 -3 578 131 0 130 0 0 -741z m420 -139 l0 -880
-107 67 c-60 36 -120 73 -135 82 l-28 16 0 798 0 797 135 0 135 0 0 -880z
m410 -125 l0 -1006 -23 13 c-13 7 -71 42 -130 78 l-107 65 0 928 0 927 130 0
130 0 0 -1005z m420 -49 l0 -1054 -64 -36 c-35 -20 -69 -36 -74 -36 -6 0 -38
16 -71 36 l-61 36 0 1054 0 1054 135 0 135 0 0 -1054z m420 120 l0 -934 -112
-65 c-62 -35 -123 -69 -135 -76 l-23 -12 0 1011 0 1010 135 0 135 0 0 -934z
m410 126 l0 -808 -122 -76 c-68 -41 -129 -79 -135 -82 -10 -6 -13 174 -13 883
l0 891 135 0 135 0 0 -808z m408 215 l-3 -593 -38 -77 c-28 -57 -58 -97 -118
-157 -44 -44 -84 -80 -90 -80 -5 0 -9 289 -9 750 l0 750 130 0 131 0 -3 -593z"/>
<path d="M10810 13700 c0 -734 3 -1075 11 -1112 33 -156 162 -322 369 -475 30
-23 300 -192 599 -377 l544 -336 251 142 c512 289 877 517 1018 635 128 106
211 221 248 342 19 61 20 98 20 1152 l0 1089 -1530 0 -1530 0 0 -1060z m686
679 c245 -127 446 -230 448 -228 1 2 15 25 29 51 l27 47 -152 79 c-84 44 -235
122 -335 174 -101 51 -183 96 -183 101 0 4 138 6 307 5 l308 -3 87 -139 c48
-76 90 -141 92 -144 7 -6 96 47 96 56 0 5 -28 53 -61 107 -34 55 -64 105 -66
112 -4 10 48 13 246 13 138 0 251 -2 251 -5 0 -2 -29 -50 -65 -107 -36 -56
-65 -105 -65 -110 0 -9 75 -58 88 -58 5 0 49 63 98 140 l89 140 315 0 c267 -1
312 -3 297 -14 -10 -8 -159 -87 -331 -177 l-314 -163 26 -48 c15 -26 31 -48
35 -48 4 0 203 102 442 226 376 195 439 225 472 222 l38 -3 0 -290 0 -290
-437 -3 -438 -2 0 -55 0 -55 438 -2 437 -3 0 -150 0 -149 -230 -108 c-126 -59
-236 -108 -242 -108 -16 0 -577 358 -581 371 -2 5 4 29 13 54 25 63 17 193
-14 255 -31 61 -96 126 -156 158 -72 37 -197 43 -277 12 -124 -46 -212 -172
-213 -305 0 -38 3 -82 7 -96 7 -25 5 -26 -330 -160 l-338 -135 -192 124 -192
124 0 59 0 59 450 0 450 0 0 55 0 55 -450 0 -450 0 0 295 0 295 40 0 c33 0
121 -42 486 -231z m973 -272 c22 -15 53 -46 68 -69 24 -36 28 -52 28 -114 0
-40 -5 -78 -11 -84 -8 -8 -34 3 -98 44 -47 31 -92 56 -99 56 -8 0 -58 -18
-112 -40 -54 -22 -101 -37 -104 -34 -12 12 -4 120 11 149 23 44 67 85 113 107
59 27 149 21 204 -15z m570 -757 c567 -363 680 -439 681 -457 l0 -23 -552 1
-553 0 -165 218 -165 218 -54 -23 c-29 -13 -55 -24 -56 -24 -1 0 -8 35 -14 78
-22 138 9 122 -236 122 l-213 0 -6 -57 c-4 -32 -9 -77 -13 -100 l-5 -43 -137
0 -136 0 -59 -195 -59 -195 -164 0 -163 0 0 380 0 379 109 -71 c61 -40 108
-75 106 -78 -2 -4 -36 -19 -75 -34 -78 -31 -77 -26 -39 -114 l18 -42 38 15
c21 8 301 121 623 250 322 128 590 233 596 232 7 -1 318 -198 693 -437z m681
-86 l0 -186 -22 14 c-189 119 -317 202 -315 205 7 6 322 153 330 153 4 0 7
-84 7 -186z m-1654 43 c7 -32 15 -78 19 -102 l6 -45 -157 0 -157 0 7 77 c4 42
10 89 13 105 l6 29 126 -3 126 -3 11 -58z m320 -294 c70 -93 148 -194 173
-226 31 -40 41 -61 33 -66 -26 -16 -303 -74 -311 -65 -4 5 -25 110 -45 234
-21 124 -40 234 -42 246 -5 20 21 42 53 43 6 1 69 -74 139 -166z m-710 125
c-3 -13 -8 -49 -11 -80 l-6 -58 -110 0 c-60 0 -109 2 -109 4 0 7 42 141 47
149 2 4 47 7 99 7 93 0 94 0 90 -22z m460 -231 c11 -70 18 -129 16 -132 -9 -8
-410 -6 -416 3 -2 4 2 57 10 117 7 61 13 118 14 128 0 16 13 17 177 15 l177
-3 22 -128z m-500 -119 l-11 -93 -139 -3 -138 -3 6 28 c4 15 16 58 28 96 l20
67 122 0 122 0 -10 -92z m-386 -66 c0 -5 -7 -31 -15 -58 -8 -27 -15 -55 -15
-61 0 -10 55 -13 244 -13 l244 0 6 35 7 35 228 0 228 0 7 -42 c4 -24 9 -53 13
-65 l5 -23 -492 0 -492 0 6 -24 c3 -13 15 -45 26 -70 l19 -46 677 0 677 0 90
68 91 67 -284 5 -285 5 258 60 c141 32 262 62 269 66 7 5 4 16 -11 36 l-23 28
493 3 c271 1 494 0 497 -3 13 -13 -17 -169 -42 -219 -34 -68 -144 -187 -241
-261 l-74 -55 -560 0 -561 0 0 -70 0 -70 447 0 448 0 -35 -24 c-143 -96 -751
-438 -770 -433 -24 6 -951 580 -1044 646 -191 136 -304 288 -314 423 l-5 68
142 0 c77 0 141 -4 141 -8z"/>
<path d="M9155 9790 c-217 -21 -491 -41 -617 -45 l-228 -7 0 -80 0 -79 173 6
c188 7 588 36 847 61 91 9 256 17 367 18 l203 1 0 76 0 76 -46 7 c-98 13 -323
2 -699 -34z"/>
<path d="M9120 9489 c-217 -20 -440 -38 -496 -38 -55 -1 -149 -4 -207 -8
l-107 -6 0 -76 0 -76 153 3 c154 3 739 45 877 63 41 5 184 12 318 16 l242 6 0
72 c0 67 -2 73 -22 79 -61 16 -384 1 -758 -35z"/>
<path d="M9130 8969 c-217 -20 -440 -38 -495 -38 -55 -1 -151 -4 -212 -8
l-113 -6 0 -77 0 -77 163 4 c149 4 554 33 942 68 88 8 233 15 323 15 l162 0 0
74 0 74 -31 6 c-75 15 -364 1 -739 -35z"/>
<path d="M9590 8713 c-25 -2 -213 -19 -419 -38 -205 -19 -451 -37 -545 -40
-94 -3 -204 -8 -243 -11 l-73 -6 0 -75 0 -76 218 6 c189 6 423 23 912 67 69 7
200 12 292 13 l168 2 0 72 c0 39 -3 74 -7 76 -12 7 -252 15 -303 10z"/>
<path d="M9205 8160 c-225 -22 -500 -42 -610 -45 -110 -3 -219 -8 -242 -11
l-43 -5 0 -76 0 -76 208 6 c199 7 506 29 867 63 94 9 248 17 342 17 l173 2 0
76 0 76 -107 6 c-141 9 -120 10 -588 -33z"/>
<path d="M9585 7894 c-346 -36 -830 -75 -971 -79 -98 -3 -207 -8 -241 -11
l-63 -6 0 -75 0 -76 208 6 c210 6 412 21 807 58 121 11 300 21 397 22 l178 2
0 72 c0 39 -3 74 -7 76 -12 7 -262 15 -308 11z"/>
<path d="M9485 7364 c-11 -2 -171 -18 -355 -34 -262 -25 -591 -45 -807 -50 -9
0 -13 -22 -13 -77 l0 -78 217 7 c207 6 635 37 808 59 44 5 189 12 323 16 l242
6 0 72 c0 57 -3 74 -16 79 -16 6 -363 6 -399 0z"/>
<path d="M9565 7073 c-588 -55 -830 -74 -1002 -79 -114 -3 -218 -7 -230 -10
-21 -4 -23 -10 -23 -81 l0 -76 203 7 c200 7 532 31 862 62 94 9 250 17 347 18
l178 1 0 76 0 76 -92 7 c-91 6 -169 6 -243 -1z"/>
<path d="M10618 9823 l-38 -4 0 -77 0 -77 132 3 c73 2 216 -4 318 -12 600 -50
804 -65 968 -71 l182 -6 0 79 0 79 -217 7 c-120 4 -409 25 -642 47 -391 36
-581 45 -703 32z"/>
<path d="M10603 9523 c-21 -4 -23 -10 -23 -79 l0 -74 173 0 c94 0 244 -7 332
-15 404 -37 784 -64 933 -67 l162 -3 0 78 0 77 -27 0 c-172 2 -559 26 -857 55
-342 32 -613 43 -693 28z"/>
<path d="M10603 9003 c-21 -4 -23 -10 -23 -77 l0 -73 233 -6 c127 -3 273 -11
322 -16 193 -22 718 -60 878 -64 l167 -4 0 77 0 77 -112 6 c-62 4 -151 7 -198
7 -47 0 -281 18 -520 40 -402 37 -667 48 -747 33z"/>
<path d="M10665 8711 l-80 -6 -3 -75 -3 -75 178 -2 c98 -1 252 -9 343 -17 378
-36 667 -57 868 -63 l212 -6 0 76 0 75 -72 6 c-40 3 -152 8 -248 11 -96 3
-339 20 -540 39 -411 39 -540 46 -655 37z"/>
<path d="M10660 8191 l-75 -6 -3 -75 -3 -75 178 -1 c98 -1 255 -9 348 -18 370
-35 670 -57 868 -63 l207 -6 0 76 0 76 -52 5 c-29 3 -138 8 -243 11 -104 3
-359 21 -565 40 -414 39 -548 46 -660 36z"/>
<path d="M10623 7893 l-43 -4 0 -77 0 -77 193 -1 c105 -1 269 -8 362 -17 314
-31 659 -56 853 -63 l192 -7 0 80 0 80 -227 7 c-126 4 -418 25 -653 47 -385
35 -551 43 -677 32z"/>
<path d="M10598 7363 c-15 -4 -18 -16 -18 -79 l0 -74 173 0 c95 0 268 -9 383
-19 355 -33 742 -60 897 -63 l147 -3 0 78 c0 67 -2 77 -17 77 -182 3 -557 27
-852 55 -267 25 -420 35 -535 34 -89 -1 -169 -3 -178 -6z"/>
<path d="M10648 7073 l-68 -4 0 -77 0 -77 183 -1 c100 -1 259 -9 352 -18 345
-33 656 -55 858 -62 l207 -7 0 76 0 76 -32 5 c-18 3 -125 8 -238 11 -113 3
-398 24 -634 45 -407 38 -467 41 -628 33z"/>
<path d="M4203 17477 c-189 -161 -343 -296 -344 -300 -1 -11 954 -1138 963
-1134 11 4 698 588 698 594 0 9 -194 233 -202 233 -5 0 -98 -76 -208 -170
-110 -93 -203 -170 -208 -170 -5 0 -38 35 -74 78 -36 42 -77 91 -92 109 l-26
31 190 162 190 161 -101 120 c-56 65 -103 119 -105 119 -2 0 -236 -196 -364
-306 -13 -11 -26 -1 -88 71 -40 47 -75 91 -77 97 -3 8 82 87 200 186 l205 174
-101 119 c-56 65 -104 119 -108 118 -3 0 -160 -132 -348 -292z m368 126 c57
-63 69 -45 -153 -234 -112 -95 -203 -176 -203 -180 0 -11 269 -328 278 -328 7
-1 112 86 361 298 17 15 21 13 57 -28 21 -24 39 -46 38 -50 0 -3 -83 -75 -185
-160 -101 -85 -184 -158 -184 -162 0 -9 298 -363 308 -366 4 -2 99 76 212 172
l205 175 38 -42 c21 -23 36 -46 34 -52 -4 -13 -536 -466 -546 -466 -7 0 -797
926 -828 971 -11 15 18 43 260 248 149 127 275 231 278 231 3 0 16 -12 30 -27z"/>
<path d="M16310 16579 c-278 -258 -523 -487 -544 -508 l-39 -40 124 -134 c68
-74 126 -135 129 -136 3 0 100 88 215 195 l210 195 38 -40 c60 -65 56 -80 -83
-367 -66 -136 -120 -251 -120 -256 0 -11 266 -299 276 -299 12 0 295 623 305
674 11 48 11 48 42 40 18 -4 73 -8 122 -8 77 0 98 4 148 27 77 36 161 123 201
207 27 58 31 77 31 152 0 80 -3 91 -42 170 -23 46 -71 120 -106 164 -62 77
-383 428 -396 432 -3 1 -233 -210 -511 -468z m768 51 c142 -162 192 -255 192
-358 0 -71 -25 -127 -84 -190 -109 -116 -250 -133 -379 -44 l-50 34 -29 -29
-29 -30 21 -41 c19 -36 20 -46 10 -84 -10 -38 -224 -516 -237 -528 -6 -6 -144
141 -139 149 238 481 252 524 199 612 -15 26 -53 74 -84 108 l-57 62 -207
-193 c-114 -106 -211 -194 -214 -196 -9 -3 -121 113 -121 126 0 5 212 207 472
447 l472 439 94 -100 c52 -54 128 -137 170 -184z"/>
<path d="M16674 16534 c-93 -86 -170 -157 -171 -158 -2 -1 41 -47 95 -102 138
-141 232 -180 336 -140 47 18 120 88 136 132 18 47 12 127 -15 180 -24 47
-188 244 -204 244 -4 0 -84 -70 -177 -156z m291 -128 c30 -60 31 -79 6 -120
-39 -62 -116 -85 -179 -52 -17 9 -59 42 -93 73 l-62 58 104 98 104 98 47 -53
c26 -29 59 -75 73 -102z"/>
<path d="M3201 16503 c-61 -76 -111 -141 -111 -145 0 -4 153 -130 341 -279
187 -149 338 -273 336 -275 -4 -4 -925 181 -955 191 -11 4 -272 -309 -272
-327 0 -6 1144 -920 1159 -926 9 -3 236 277 230 282 -307 242 -689 549 -687
551 3 3 876 -171 955 -190 18 -4 42 21 152 160 l131 165 -518 413 c-284 226
-547 436 -584 465 l-67 53 -110 -138z m639 -407 c276 -219 500 -401 498 -405
-9 -21 -155 -200 -163 -200 -5 -1 -264 51 -575 114 l-565 114 -30 -29 c-26
-26 -28 -32 -15 -44 8 -7 192 -154 408 -325 215 -172 392 -315 392 -318 0 -3
-23 -34 -51 -69 l-50 -63 -247 196 c-136 109 -365 291 -510 406 -234 186 -261
211 -249 226 7 9 42 52 77 96 35 44 66 83 70 88 3 4 161 -24 351 -63 189 -39
446 -92 571 -117 l228 -47 25 24 c14 13 24 30 23 36 -2 7 -184 157 -406 334
l-402 322 37 47 c59 74 66 82 74 79 5 -2 234 -182 509 -402z"/>
<path d="M17710 15508 c-129 -45 -229 -131 -278 -236 -36 -80 -41 -206 -13
-375 29 -175 28 -227 -4 -265 -70 -84 -194 -22 -267 133 -33 72 -58 178 -58
253 0 28 -2 52 -4 52 -4 0 -319 -152 -326 -157 -9 -8 65 -213 108 -298 193
-375 480 -497 757 -320 28 17 70 53 93 79 105 114 123 232 77 508 -35 218 -27
247 77 272 62 15 138 -49 189 -159 29 -61 59 -163 59 -200 1 -53 12 -52 165
21 l146 69 -6 34 c-12 63 -65 197 -110 276 -90 157 -172 240 -295 299 -90 42
-213 48 -310 14z m231 -88 c143 -44 271 -194 354 -414 l25 -66 -50 -25 c-27
-14 -53 -25 -59 -25 -5 0 -16 24 -26 53 -64 199 -169 307 -297 307 -87 -1
-171 -52 -197 -123 -17 -44 -13 -143 10 -263 11 -60 21 -149 22 -199 1 -77 -2
-98 -25 -147 -33 -72 -93 -129 -176 -170 -58 -29 -76 -33 -147 -33 -68 0 -89
4 -137 28 -140 69 -262 231 -346 459 l-22 58 61 31 c34 16 63 28 66 25 3 -2 9
-23 14 -46 17 -74 68 -193 104 -242 19 -27 61 -65 92 -85 53 -36 61 -38 134
-38 71 0 80 2 116 31 84 69 97 139 62 339 -30 172 -30 283 0 352 49 112 197
206 332 212 15 1 55 -8 90 -19z"/>
<path d="M2192 14879 c-70 -27 -167 -119 -231 -218 -50 -78 -291 -539 -291
-557 0 -5 73 -46 163 -91 89 -45 387 -196 662 -336 l501 -254 87 168 87 167
-260 132 -260 131 20 38 c30 59 63 81 125 81 29 0 162 -11 295 -25 134 -14
244 -24 245 -23 21 30 185 362 181 366 -12 11 -678 58 -730 51 -28 -3 -52 -6
-53 -5 -1 1 -6 29 -12 63 -13 84 -41 142 -92 198 -108 117 -298 167 -437 114z
m275 -114 c77 -38 126 -88 149 -153 18 -50 17 -140 -1 -191 l-14 -41 41 -21
c38 -20 42 -20 51 -4 19 35 47 54 89 60 37 6 577 -31 586 -40 2 -2 -17 -44
-43 -95 -43 -86 -47 -91 -73 -86 -15 3 -131 15 -259 27 -259 25 -285 23 -347
-32 -19 -16 -55 -70 -80 -119 l-46 -89 102 -54 c57 -31 173 -90 260 -133 l156
-78 -39 -78 c-22 -43 -44 -78 -50 -78 -9 0 -1136 566 -1149 577 -8 7 185 383
239 465 132 203 252 248 428 163z"/>
<path d="M2222 14583 c-53 -26 -117 -106 -177 -224 -31 -61 -55 -112 -53 -114
1 -1 95 -49 207 -105 232 -116 207 -115 262 -8 39 76 79 199 79 240 0 125
-105 228 -232 228 -29 0 -68 -8 -86 -17z m145 -94 c80 -39 93 -112 42 -235
-17 -41 -35 -76 -39 -79 -9 -6 -250 111 -250 121 0 8 48 91 81 140 26 39 77
73 108 74 8 0 34 -9 58 -21z"/>
<path d="M18110 13937 c-371 -160 -677 -292 -679 -294 -2 -2 29 -80 69 -174
57 -133 76 -170 89 -166 12 3 1115 476 1333 571 l26 11 -72 170 c-40 93 -77
170 -82 171 -5 1 -313 -129 -684 -289z m677 78 c18 -43 32 -79 31 -80 -9 -7
-1177 -505 -1186 -505 -10 0 -74 137 -72 155 1 11 1170 516 1184 512 5 -2 25
-38 43 -82z"/>
<path d="M1788 13370 c-203 -24 -392 -149 -496 -325 -47 -79 -96 -219 -111
-315 -42 -259 52 -506 247 -650 266 -197 657 -249 909 -122 229 116 383 396
383 695 -1 353 -245 616 -652 701 -96 20 -198 26 -280 16z m287 -115 c277 -65
463 -223 531 -451 25 -82 23 -233 -5 -338 -64 -243 -204 -398 -417 -462 -91
-28 -261 -24 -389 10 -150 39 -274 105 -360 191 -155 154 -202 348 -141 589
35 136 84 225 176 317 84 85 163 130 270 154 80 18 236 14 335 -10z"/>
<path d="M1787 13078 c-133 -13 -243 -74 -308 -169 -54 -78 -74 -146 -74 -254
0 -82 3 -97 33 -157 47 -96 131 -175 245 -232 134 -67 196 -81 362 -81 136 0
142 1 207 32 92 43 151 101 193 187 96 197 51 394 -120 523 -151 115 -351 171
-538 151z m258 -118 c277 -86 399 -253 336 -461 -19 -61 -31 -81 -79 -129 -74
-74 -131 -94 -262 -94 -294 1 -540 174 -540 379 0 162 86 277 240 320 74 20
213 13 305 -15z"/>
<path d="M19005 13283 c-71 -19 -132 -37 -134 -39 -2 -2 17 -87 44 -189 28
-110 44 -189 39 -194 -5 -5 -258 -74 -562 -154 -304 -80 -555 -147 -558 -150
-6 -5 81 -346 91 -355 3 -3 258 61 567 142 309 80 565 143 569 139 4 -4 28
-89 54 -188 25 -99 48 -182 50 -184 4 -3 291 67 302 74 1 0 -64 255 -145 565
-130 496 -150 565 -167 567 -11 1 -78 -14 -150 -34z m224 -556 c67 -258 121
-470 119 -472 -8 -8 -118 -32 -118 -27 -1 12 -99 374 -102 378 -2 2 -258 -63
-568 -145 l-565 -148 -18 56 c-10 31 -19 71 -20 90 l-2 34 557 146 c306 80
559 149 563 152 3 4 -15 90 -42 192 -26 102 -45 189 -41 192 10 11 103 33 109
26 3 -3 61 -217 128 -474z"/>
<path d="M19125 11399 c-261 -182 -441 -301 -460 -304 -16 -2 -113 -9 -215
-15 -102 -6 -222 -13 -266 -17 l-81 -6 4 -41 c2 -22 7 -106 12 -184 5 -79 11
-145 13 -147 2 -1 134 6 293 17 l290 18 452 -230 c248 -127 459 -233 469 -237
16 -6 17 3 10 113 -3 65 -9 157 -13 203 l-6 84 -275 134 c-231 112 -273 136
-261 147 8 7 118 79 244 161 127 81 236 153 242 159 10 9 10 55 -1 224 -8 118
-16 215 -18 217 -1 1 -196 -132 -433 -296z m355 69 c0 -29 3 -76 6 -104 l6
-51 -118 -77 c-66 -43 -204 -133 -308 -201 l-190 -123 331 -162 331 -162 4
-87 c3 -47 4 -88 2 -89 -1 -2 -184 88 -406 201 l-403 206 -252 -17 c-139 -8
-256 -13 -259 -9 -3 3 -8 44 -11 90 l-6 84 74 6 c41 4 157 12 259 18 l185 12
370 258 c204 142 373 258 378 258 4 1 7 -23 7 -51z"/>
<path d="M962 11432 c-60 -139 -87 -324 -71 -490 37 -392 279 -634 684 -682
400 -48 702 143 809 512 48 165 55 329 25 541 l-11 77 -137 0 c-75 0 -154 3
-175 7 -44 7 -44 15 -5 -92 26 -73 37 -254 20 -334 -46 -215 -235 -347 -469
-326 -145 12 -246 58 -330 150 -73 80 -96 144 -96 270 0 123 21 200 80 295 23
39 40 70 36 70 -4 0 -79 12 -167 25 -88 14 -163 25 -166 25 -4 0 -16 -22 -27
-48z m199 -78 c3 -2 -6 -36 -20 -76 -23 -65 -26 -88 -26 -213 l0 -140 38 -79
c89 -188 276 -295 514 -296 165 0 279 40 381 135 130 121 179 300 149 548 l-9
67 60 0 c72 0 69 6 78 -170 13 -263 -52 -466 -196 -610 -129 -130 -267 -178
-484 -167 -135 7 -234 30 -336 80 -87 42 -206 159 -249 246 -88 174 -103 411
-40 625 l20 68 57 -7 c31 -4 60 -9 63 -11z"/>
<path d="M18065 8708 c-3 -7 -53 -200 -113 -428 -73 -278 -105 -417 -98 -421
6 -4 184 -55 396 -114 212 -58 393 -109 403 -111 15 -5 17 3 17 73 0 203 65
375 159 423 48 24 84 25 142 5 87 -31 123 -90 121 -201 -2 -102 -52 -214 -154
-342 l-29 -36 158 -47 c87 -27 166 -48 175 -48 21 -1 72 95 116 221 105 295
77 534 -79 691 -120 120 -332 182 -501 146 -61 -13 -139 -50 -183 -87 -77 -63
-144 -181 -166 -291 -7 -33 -17 -61 -22 -61 -15 0 -162 43 -170 50 -4 3 23
120 59 259 52 199 64 255 53 261 -13 9 -250 70 -269 70 -6 0 -13 -6 -15 -12z
m173 -139 c1 -8 -27 -124 -62 -259 -36 -135 -63 -246 -62 -248 2 -1 89 -26
194 -56 l192 -53 0 26 c1 65 32 190 61 250 67 137 169 201 317 201 137 0 258
-47 335 -129 145 -154 152 -351 25 -658 -16 -40 -33 -73 -36 -73 -7 0 -96 26
-119 35 -8 3 -1 23 22 61 52 87 77 160 82 249 10 146 -37 237 -149 294 -119
59 -228 44 -320 -46 -74 -73 -138 -243 -138 -369 0 -23 -5 -34 -15 -34 -20 0
-588 160 -597 168 -5 5 142 593 167 669 5 16 99 -9 103 -28z"/>
<path d="M1700 8460 c-632 -168 -705 -189 -702 -206 7 -43 84 -330 90 -336 4
-4 135 27 291 68 156 41 288 73 294 71 5 -1 36 -101 67 -220 32 -120 59 -220
62 -222 2 -2 71 14 153 35 83 22 150 40 151 40 1 0 -25 98 -57 218 -32 119
-59 222 -59 228 0 9 230 78 236 71 1 -1 29 -108 63 -237 35 -129 63 -236 65
-237 1 -1 70 17 154 39 100 27 151 45 148 53 -6 16 -216 812 -216 819 0 3 -8
6 -17 5 -10 0 -335 -85 -723 -189z m679 33 c6 -21 44 -166 85 -322 42 -157 74
-287 72 -289 -7 -6 -110 -31 -114 -27 -2 2 -30 104 -63 226 -32 123 -61 228
-63 235 -3 7 -72 -7 -213 -44 -114 -30 -209 -56 -211 -57 -3 -2 100 -403 113
-442 4 -13 -103 -49 -113 -38 -4 4 -32 103 -64 222 -31 118 -59 217 -62 220
-2 3 -133 -30 -290 -71 -158 -42 -290 -76 -294 -76 -8 0 -42 118 -45 156 -2
16 72 38 603 180 333 89 615 162 627 163 18 1 24 -7 32 -36z"/>
<path d="M2316 7295 c-100 -21 -160 -42 -266 -95 -420 -210 -558 -593 -357
-995 91 -184 240 -321 408 -376 65 -21 92 -24 219 -23 131 0 153 3 230 28 397
130 626 411 607 745 -18 321 -238 621 -517 705 -77 24 -239 29 -324 11z m278
-100 c104 -27 166 -64 251 -150 93 -93 160 -210 195 -339 29 -103 25 -260 -8
-351 -44 -120 -137 -230 -269 -316 -254 -166 -550 -190 -748 -61 -180 116
-315 366 -315 581 0 147 50 268 157 382 190 201 512 312 737 254z"/>
<path d="M2345 7004 c-33 -8 -101 -35 -152 -59 -203 -99 -332 -251 -349 -411
-18 -167 84 -346 236 -418 89 -42 209 -48 331 -17 287 72 493 270 507 486 12
184 -107 362 -277 415 -76 24 -206 26 -296 4z m267 -94 c81 -23 175 -124 199
-212 19 -74 13 -155 -17 -217 -101 -207 -446 -359 -653 -287 -68 23 -133 87
-169 164 -22 47 -27 71 -27 137 0 100 24 154 105 235 154 154 389 229 562 180z"/>
<path d="M17628 7242 c-172 -182 -249 -406 -203 -600 14 -61 54 -147 94 -207
76 -111 267 -257 452 -344 406 -191 687 -142 836 145 57 109 76 188 71 296 -4
75 -9 96 -41 161 -63 128 -211 244 -387 303 -81 27 -217 25 -293 -5 -89 -35
-177 -123 -230 -229 -37 -75 -42 -94 -42 -152 l0 -67 -31 24 c-37 28 -77 82
-99 135 -42 101 5 228 125 342 39 36 70 68 70 70 0 4 -224 160 -256 179 -6 4
-36 -19 -66 -51z m122 -105 l49 -33 -40 -49 c-118 -142 -146 -278 -86 -408 44
-94 133 -184 240 -242 46 -26 52 -27 88 -15 22 7 39 14 39 15 0 1 -14 30 -31
64 -28 55 -31 70 -27 129 6 117 86 240 189 293 70 35 176 38 268 6 146 -51
264 -145 317 -253 55 -112 31 -270 -62 -409 -44 -67 -82 -100 -154 -134 -48
-22 -68 -26 -150 -25 -127 0 -226 29 -398 115 -321 159 -482 348 -482 563 0
82 16 149 54 226 26 54 120 190 131 190 3 0 28 -15 55 -33z"/>
<path d="M18184 6712 c-74 -35 -124 -118 -124 -206 0 -164 263 -328 441 -275
120 36 184 186 130 304 -25 55 -99 121 -179 158 -86 40 -204 49 -268 19z m231
-111 c143 -67 184 -179 94 -255 -61 -52 -201 -23 -297 60 -60 52 -71 135 -25
187 48 54 124 56 228 8z"/>
<path d="M17050 5949 c-210 -42 -433 -290 -470 -521 -35 -222 134 -429 362
-444 47 -4 92 0 126 9 l52 14 0 -58 c0 -119 58 -236 149 -303 158 -116 339
-127 494 -29 136 86 272 276 314 436 37 146 -12 306 -125 407 -134 120 -294
159 -434 105 -12 -5 -17 5 -21 38 -12 84 -45 152 -108 221 -97 105 -218 150
-339 125z m179 -118 c53 -28 114 -88 143 -143 19 -36 23 -58 23 -140 0 -91 1
-97 24 -111 22 -13 30 -12 98 20 140 67 255 43 379 -81 71 -71 94 -126 94
-223 0 -119 -58 -237 -179 -365 -98 -104 -173 -142 -276 -142 -56 0 -82 5
-126 26 -152 75 -213 193 -191 371 8 64 7 68 -16 83 -23 15 -28 14 -86 -12
-45 -21 -81 -29 -139 -32 -68 -4 -84 -1 -132 22 -101 50 -175 160 -175 261 0
175 180 414 360 479 58 21 143 15 199 -13z"/>
<path d="M16986 5676 c-106 -40 -184 -189 -156 -298 22 -81 83 -136 170 -152
75 -13 247 58 277 115 30 56 7 190 -43 256 -55 72 -168 108 -248 79z m131
-106 c18 -10 39 -29 47 -42 19 -29 36 -102 29 -127 -8 -29 -110 -76 -166 -76
-42 0 -52 4 -78 33 -36 40 -38 87 -8 150 37 76 111 102 176 62z"/>
<path d="M17526 5309 c-49 -12 -149 -65 -173 -91 -26 -29 -26 -197 0 -249 98
-197 365 -193 463 6 23 47 26 65 22 124 -3 59 -9 77 -34 112 -60 82 -177 124
-278 98z m167 -122 c67 -51 71 -135 11 -207 -35 -41 -74 -60 -126 -60 -99 0
-168 94 -151 202 5 34 11 41 67 69 77 39 145 37 199 -4z"/>
<path d="M3210 5584 c-206 -162 -405 -325 -441 -362 -138 -143 -186 -294 -144
-457 34 -129 114 -263 233 -387 199 -207 420 -246 654 -115 59 34 845 643 842
654 -1 3 -52 70 -114 149 l-113 144 -36 -27 c-20 -15 -186 -145 -368 -289
-183 -143 -359 -274 -390 -290 -49 -25 -70 -29 -135 -29 -70 0 -79 2 -115 31
-21 17 -53 55 -70 84 -56 92 -41 184 45 280 22 25 202 174 401 330 199 156
361 289 360 295 -1 13 -211 278 -224 281 -6 2 -179 -129 -385 -292z m425 95
c49 -60 56 -74 44 -83 -190 -143 -629 -496 -674 -542 -86 -87 -119 -158 -120
-254 0 -91 29 -160 100 -234 130 -135 300 -127 505 25 41 30 194 149 339 264
146 114 270 208 277 209 6 1 34 -28 62 -64 48 -61 50 -66 34 -82 -63 -62 -713
-560 -766 -586 -180 -89 -323 -61 -488 96 -83 79 -168 198 -209 292 -19 45
-24 72 -24 150 0 88 3 101 33 162 45 93 106 149 492 453 184 145 336 264 336
264 1 1 28 -31 59 -70z"/>
<path d="M16030 4848 l-105 -112 -27 -285 c-15 -157 -24 -289 -20 -292 10 -9
301 -41 311 -35 5 3 12 55 16 116 4 61 10 112 14 114 6 4 288 -265 654 -623
l77 -76 130 130 c72 71 130 133 130 136 0 9 -1059 1039 -1068 1039 -5 0 -55
-50 -112 -112z m835 -721 l210 -205 -63 -66 -63 -66 -401 391 c-220 215 -402
388 -406 385 -5 -5 -31 -262 -32 -315 0 -23 -2 -24 -61 -18 -33 3 -63 8 -67
11 -3 4 4 108 15 233 l21 226 63 63 62 63 256 -248 c141 -137 351 -341 466
-454z"/>
<path d="M4229 3989 c-261 -313 -475 -573 -476 -577 -1 -6 117 -106 247 -210
l29 -23 283 340 c155 187 284 338 286 337 1 -2 -45 -214 -103 -472 -58 -258
-107 -476 -108 -485 -1 -9 62 -69 157 -148 153 -129 159 -133 176 -115 10 11
219 262 465 559 246 297 454 547 461 556 13 14 -1 29 -120 127 -74 62 -139
112 -145 112 -5 0 -135 -151 -287 -335 -153 -184 -280 -333 -281 -331 -4 3
201 923 212 953 4 11 -108 110 -276 246 l-46 37 -474 -571z m592 349 c88 -73
99 -86 94 -108 -3 -14 -61 -270 -130 -570 l-124 -545 31 -28 c25 -24 33 -27
43 -15 7 7 157 188 334 401 l322 388 27 -20 c15 -11 45 -35 66 -54 l39 -33
-413 -497 c-227 -273 -416 -497 -421 -497 -4 0 -51 37 -104 81 -81 68 -96 85
-91 104 6 23 245 1092 249 1111 1 6 -12 23 -28 37 l-31 25 -323 -389 c-178
-213 -329 -393 -337 -400 -11 -9 -26 0 -73 37 -33 27 -59 54 -58 60 2 11 817
994 824 994 3 0 49 -37 104 -82z"/>
<path d="M5772 2798 l-341 -662 212 -109 c248 -128 313 -157 433 -193 119 -35
290 -44 384 -20 215 54 377 215 493 486 158 374 31 687 -376 924 -101 58 -444
236 -456 236 -4 0 -161 -298 -349 -662z m566 445 c224 -116 322 -181 412 -272
194 -197 221 -422 85 -696 -167 -337 -417 -448 -765 -338 -96 30 -506 233
-502 248 6 24 588 1145 595 1145 4 0 83 -39 175 -87z"/>
<path d="M6128 2878 c-75 -145 -183 -355 -242 -468 l-105 -206 122 -61 c147
-74 187 -85 297 -85 145 0 257 49 357 155 170 180 210 443 95 636 -53 91 -131
158 -266 230 -64 33 -117 61 -119 61 -2 0 -65 -118 -139 -262z m269 86 c83
-46 150 -116 187 -194 42 -88 48 -204 16 -300 -48 -145 -158 -260 -288 -300
-110 -34 -210 -22 -337 42 l-64 33 197 383 c150 292 200 381 212 377 8 -4 43
-22 77 -41z"/>
<path d="M14085 3263 c-113 -24 -236 -77 -467 -200 -120 -63 -225 -121 -234
-128 -15 -10 21 -83 331 -661 191 -357 350 -652 353 -656 9 -8 412 207 522
280 47 30 124 94 171 141 185 186 240 408 163 653 -94 298 -293 513 -529 573
-74 19 -218 18 -310 -2z m327 -104 c120 -40 222 -128 313 -268 87 -135 135
-278 135 -406 -1 -153 -46 -252 -175 -380 -49 -50 -119 -109 -155 -132 -103
-66 -414 -232 -422 -225 -3 4 -142 261 -308 571 -274 512 -301 566 -285 577
33 24 362 194 426 220 165 67 350 84 471 43z"/>
<path d="M14005 3005 c-45 -13 -257 -115 -279 -135 -7 -7 459 -897 484 -923
10 -11 182 81 253 134 157 119 230 324 182 514 -38 149 -153 305 -271 367
-104 56 -256 73 -369 43z m260 -102 c108 -38 196 -121 253 -241 36 -74 37 -81
37 -187 0 -101 -2 -115 -29 -170 -17 -33 -53 -83 -80 -110 -54 -54 -184 -132
-196 -118 -10 11 -400 740 -400 748 0 12 169 87 216 95 58 10 144 3 199 -17z"/>
<path d="M15373 2811 l-152 -108 105 -149 c58 -82 109 -149 115 -149 14 0 298
198 299 208 0 8 -183 273 -204 294 -8 9 -47 -14 -163 -96z m179 -93 c25 -35
47 -68 51 -74 4 -6 -26 -33 -68 -62 l-73 -52 -47 67 c-26 37 -49 72 -51 78 -3
9 121 103 138 105 3 0 26 -28 50 -62z"/>
<path d="M7644 2683 c-9 -32 -104 -355 -210 -718 -106 -363 -192 -660 -191
-661 15 -8 880 -254 883 -251 14 13 86 289 78 296 -5 4 -121 41 -259 81 -137
40 -251 73 -252 74 -1 1 11 45 27 98 16 54 34 116 40 138 7 25 17 40 26 40 9
0 115 -29 237 -65 121 -36 224 -62 228 -58 7 8 80 257 83 282 1 10 -65 34
-227 81 -126 38 -231 71 -235 74 -5 5 53 224 61 233 2 1 119 -32 261 -73 142
-42 259 -74 260 -72 12 16 85 293 79 299 -4 4 -197 62 -428 129 -231 68 -425
125 -432 127 -7 3 -18 -17 -29 -54z m476 -178 c162 -48 296 -88 298 -90 6 -6
-28 -115 -36 -115 -4 0 -119 34 -257 74 -137 41 -253 71 -256 67 -8 -7 -119
-386 -119 -404 0 -8 86 -38 235 -82 192 -56 235 -71 231 -84 -24 -85 -30 -101
-35 -101 -3 0 -109 31 -236 68 -152 45 -232 65 -236 58 -4 -6 -36 -111 -72
-234 -44 -150 -61 -225 -54 -227 7 -2 122 -36 257 -76 135 -39 247 -73 249
-75 6 -6 -18 -97 -28 -107 -7 -7 -633 168 -682 191 -15 6 5 82 161 613 97 334
180 614 183 622 5 14 11 15 54 2 26 -7 181 -53 343 -100z"/>
<path d="M11965 2487 c-154 -36 -180 -45 -184 -62 -11 -56 -228 -1560 -226
-1563 2 -2 88 16 192 40 l188 43 23 165 c12 90 26 168 30 171 8 8 443 109 467
109 8 0 56 -62 106 -137 51 -76 93 -139 94 -140 1 -2 92 18 203 44 l201 46
-147 216 c-462 680 -758 1111 -762 1110 -3 0 -86 -19 -185 -42z m535 -634
c212 -311 386 -571 388 -578 2 -8 -27 -18 -80 -30 -46 -10 -88 -20 -95 -22 -7
-3 -52 56 -105 136 -51 77 -100 140 -108 140 -8 0 -148 -30 -310 -68 l-295
-68 -12 -89 c-6 -49 -17 -125 -23 -170 l-12 -80 -89 -20 c-53 -12 -89 -17 -89
-11 0 14 189 1314 196 1348 4 23 13 27 117 51 62 14 117 26 122 27 6 0 183
-255 395 -566z"/>
<path d="M12025 2213 c-11 -3 -23 -8 -27 -11 -4 -4 -23 -151 -43 -327 -19
-176 -38 -334 -40 -351 l-5 -31 257 60 c142 32 261 62 264 66 7 7 -362 594
-376 597 -6 1 -19 -1 -30 -3z m251 -530 c-6 -7 -248 -65 -251 -61 -4 4 35 369
41 387 3 8 52 -61 110 -153 58 -93 103 -170 100 -173z"/>
<path d="M9066 2358 c-7 -21 -119 -1468 -115 -1472 2 -2 123 -14 269 -26 348
-29 506 -19 665 46 264 107 397 342 399 704 0 164 -18 254 -77 365 -47 88
-154 191 -252 242 -152 78 -275 105 -613 133 -288 24 -272 23 -276 8z m314
-108 c347 -26 524 -84 656 -215 115 -114 160 -252 151 -465 -7 -148 -25 -229
-74 -328 -94 -191 -272 -287 -548 -299 -110 -4 -500 19 -512 30 -4 4 97 1268
102 1285 3 8 17 11 42 7 21 -2 103 -9 183 -15z"/>
<path d="M9329 2128 c-3 -8 -86 -1043 -84 -1046 1 -1 63 -7 137 -14 116 -9
145 -9 206 5 110 25 179 62 252 136 106 107 151 224 151 391 1 236 -136 426
-351 490 -61 18 -307 48 -311 38z m301 -134 c192 -72 295 -257 262 -470 -7
-43 -23 -102 -37 -131 -34 -76 -115 -157 -194 -196 -63 -30 -72 -32 -183 -32
-64 0 -120 3 -124 7 -6 6 52 814 61 844 4 15 158 -1 215 -22z"/>
<path d="M13336 1734 c-94 -36 -172 -66 -174 -69 -8 -7 122 -345 132 -345 7 0
331 118 343 125 2 1 -127 349 -130 351 -1 1 -78 -27 -171 -62z m147 -148 c16
-43 25 -81 21 -85 -11 -10 -156 -63 -160 -59 -9 10 -63 163 -58 167 9 10 148
60 158 57 5 -1 22 -37 39 -80z"/>
</g>
</svg>
